<?xml version="1.0" encoding="UTF-8"?>
<!-- Generated by Pixelmator Pro 3.8 -->
<svg width="1641" height="598" viewBox="0 0 1641 598" xmlns="http://www.w3.org/2000/svg">
    <path id="Shape" fill="#ffffff" fill-rule="evenodd" stroke="none" d="M 369.5 597.52301 C 361.933716 597.882507 357.361938 597.530579 350.714783 596.076843 C 345.882904 595.020142 339.000854 592.785034 335.421295 591.109985 C 331.841766 589.434875 326.176544 585.91449 322.83194 583.286804 C 319.487335 580.659119 314.835663 575.807129 312.494904 572.504639 C 310.154144 569.202087 307.030762 564.09436 305.554047 561.154114 C 304.077332 558.213867 301.984802 552.363892 300.903961 548.154114 C 299.82312 543.944336 298.665039 535.77124 298.330444 529.991699 C 297.988281 524.081482 298.250061 514.236206 298.928741 507.491699 C 299.592377 500.896271 301.680908 488.249146 303.569885 479.386963 C 305.458862 470.52478 309.300446 454.999786 312.10672 444.886963 C 314.913025 434.774139 318.06369 423.374146 319.108215 419.55368 C 320.15274 415.733185 320.634796 412.234772 320.179443 411.779449 C 319.724121 411.324097 316.386353 413.569214 312.762177 416.768555 C 309.138031 419.967896 303.771423 423.791718 300.836395 425.265961 C 297.901398 426.740234 292.591339 428.684143 289.036316 429.585785 C 284.722595 430.67984 280.792389 431.0159 277.220581 430.5961 C 274.276947 430.250153 269.676025 428.856049 266.996277 427.498108 C 264.316528 426.140198 261.003143 423.559601 259.633148 421.763458 C 258.263184 419.967346 256.190308 416.276886 255.026794 413.5625 C 252.911285 408.627197 252.911285 408.627197 250.103821 411.563599 C 248.559692 413.178619 245.214355 417.265717 242.669708 420.646057 C 240.125061 424.026398 235.895874 428.69696 233.271545 431.025116 C 230.647186 433.353241 226.25 436.750732 223.5 438.575043 C 220.75 440.399384 214.899994 443.091064 210.5 444.556549 C 203.74704 446.805786 201.25296 447.152557 194.5 446.781281 C 188.448853 446.448578 185.255768 445.704285 181.392395 443.726013 C 178.583221 442.287567 174.270294 438.869995 171.808075 436.131439 C 168.739014 432.717896 166.650391 429.07785 165.16568 424.555115 C 163.51178 419.517029 163 415.523254 163 407.655212 C 163 401.988678 163.724243 393.110626 164.609436 387.926208 C 165.494659 382.741791 167.73645 373.325012 169.591217 367 C 171.446014 360.674988 173.64444 353.298645 174.476654 350.608093 C 175.989777 345.716156 175.989777 345.716156 169.750336 346.368317 C 166.318665 346.72699 162.778992 347.252747 161.88446 347.536682 C 160.814972 347.876099 159.321594 351.382782 157.523651 357.776459 C 156.019775 363.12439 152.79126 372.899994 150.349213 379.5 C 147.907135 386.100006 143.62558 396 140.834656 401.5 C 138.043732 407 133.418274 415.100006 130.555847 419.5 C 127.69342 423.899994 122.147034 431.338898 118.230591 436.030884 C 114.314117 440.72287 108.077301 447.022858 104.370972 450.030884 C 100.664673 453.038879 95.333588 456.938629 92.524139 458.69696 C 89.714676 460.455292 84.059937 463.236328 79.958023 464.877014 C 75.85611 466.517731 69.378143 468.402466 65.562531 469.065369 C 61.556366 469.761353 55.218369 470.023376 50.562531 469.685455 C 46.128143 469.363617 39.836319 468.175781 36.580719 467.045776 C 33.325119 465.915771 28.493134 463.599854 25.842987 461.899231 C 23.192825 460.198639 18.767868 456.338135 16.009766 453.320313 C 13.251648 450.30249 9.375198 444.465637 7.395447 440.349548 C 5.243774 435.876038 2.983658 428.835236 1.776657 422.845673 C 0.093048 414.490967 -0.154297 410.388641 0.288391 398.162811 C 0.627014 388.811218 1.592773 379.92511 2.954575 373.630737 C 4.128952 368.202606 6.66597 358.977631 8.592392 353.130737 C 10.518814 347.283813 15.452332 335.75 19.555756 327.5 C 23.659164 319.25 30.050308 308.24295 33.758255 303.039856 C 37.466217 297.836792 44.978409 288.914124 50.452026 283.211731 C 57.147278 276.236633 63.711334 270.632202 70.51033 266.085815 C 76.733414 261.9245 83.860168 258.160156 89.058289 256.288788 C 93.701233 254.617249 101.451019 252.695099 106.28006 252.017273 C 113.254456 251.03833 116.442139 251.040222 121.78006 252.02652 C 125.476044 252.709412 131.337097 254.540741 134.804657 256.09613 C 139.084564 258.0159 143.184845 260.999664 147.57196 265.38678 C 151.812653 269.627472 155.046875 274.02417 156.97876 278.174713 C 158.598022 281.653625 160.569122 287.004944 161.358948 290.066528 C 162.148743 293.128113 163.12381 299.142334 163.525757 303.431427 C 164.2565 311.229797 164.2565 311.229797 169.061005 310.768158 C 171.703461 310.514252 176.384521 309.031982 179.463318 307.474274 C 182.542145 305.916534 186.971466 302.585052 189.306274 300.071014 C 192.375305 296.766357 195.599152 290.975616 200.943085 279.168701 C 205.008545 270.186493 209.641876 260.864105 211.23941 258.452271 C 212.836945 256.040436 215.920166 252.760925 218.091003 251.164459 C 220.26181 249.568024 224.552551 247.470917 227.625946 246.504211 C 231.633026 245.243835 235.163727 244.886078 240.105896 245.239685 C 245.350647 245.61496 247.962128 246.370941 251.03244 248.402771 C 253.251465 249.871246 255.786774 252.582031 256.666443 254.426727 C 257.763184 256.726624 258.119293 259.465118 257.799469 263.14035 C 257.493622 266.655304 254.486481 275.727783 249.062317 289.5 C 244.513367 301.049988 237.946686 318.382874 234.469666 328.017487 C 230.992615 337.6521 226.494202 350.927124 224.473175 357.517487 C 221.986694 365.625641 220.628296 372.264893 220.271912 378.051208 C 219.820923 385.373993 220.001709 386.858856 221.530457 388.387604 C 222.591949 389.449097 224.251007 389.994019 225.622864 389.73175 C 226.891846 389.489197 229.549194 388.055756 231.528137 386.546356 C 233.50705 385.036957 237.118042 381.26413 239.552582 378.162292 C 241.987091 375.060455 246.864471 366.892517 250.391174 360.011292 C 253.917877 353.130096 260.289703 338.049988 264.550781 326.5 C 268.811829 314.950012 274.947815 298.075012 278.186279 289 C 281.424744 279.924988 285.691162 268.225006 287.667206 263 C 290.744965 254.861938 292.085388 252.686279 297.017212 247.823944 C 300.860138 244.035156 304.225037 241.707672 307.137207 240.823944 C 309.536743 240.095764 315.810028 239.5 321.07785 239.5 C 329.933136 239.5 330.921661 239.702881 334.181305 242.189117 C 336.120392 243.668152 338.335358 246.368134 339.103455 248.189117 C 339.871552 250.010101 340.456329 253.75 340.402924 256.5 C 340.331909 260.157898 338.088196 267.405273 332.044098 283.5 C 327.500153 295.600006 321.094971 312.924988 317.810364 322 C 314.525757 331.075012 310.28299 343.881653 308.381989 350.459229 C 306.480957 357.036774 304.654938 365.008026 304.324127 368.173096 C 303.860321 372.610565 304.102997 374.50824 305.384369 376.463867 C 306.346344 377.932037 307.991394 379 309.290924 379 C 310.525574 379 313.128418 377.917755 315.075012 376.595001 C 317.021606 375.272247 320.894775 371.405396 323.682007 368.002014 C 326.469238 364.598633 330.657013 358.480499 332.988159 354.406189 C 335.319305 350.331879 338.955872 342.987305 341.069397 338.0849 C 343.182953 333.182526 347.1315 322.720398 349.843994 314.835724 C 352.556488 306.95108 358.163269 290.149994 362.303467 277.5 C 366.443726 264.850006 372.423096 246.516418 375.591003 236.758728 C 378.75885 227.001038 381.057434 218.724091 380.698914 218.36554 C 380.340332 218.007019 370.023926 218.951538 357.773499 220.464539 C 345.523071 221.977539 331.993683 223.45755 327.708191 223.753479 C 323.021423 224.077118 318.356995 223.82431 316.003235 223.11911 C 313.851044 222.474304 310.769379 220.835388 309.155121 219.477081 C 307.540894 218.118774 305.495605 215.196655 304.610077 212.98349 C 303.724518 210.770294 303 206.9953 303 204.594604 C 303 202.193878 303.750641 197.905396 304.668121 195.064636 C 305.585602 192.223846 308.115387 187.878357 310.289917 185.407959 C 312.464417 182.937622 315.968292 180.036499 318.076263 178.961121 C 320.794647 177.57428 327.082794 176.436157 339.704468 175.046509 C 349.492004 173.968933 364.25 172.395752 372.5 171.550537 C 380.75 170.705383 389.834473 169.737366 392.687744 169.399475 C 397.875488 168.785095 397.875488 168.785095 400.600037 161.142578 C 402.098511 156.939148 405.065796 148.775024 407.194031 143 C 409.322266 137.224976 412.956604 128.674988 415.270386 124 C 418.165344 118.150757 421.35199 113.610168 425.488647 109.440063 C 428.794922 106.107117 433.549011 102.397339 436.053345 101.196045 C 438.557678 99.994812 443.138733 98.503479 446.233459 97.881958 C 449.328186 97.260498 453.883728 97.05542 456.356873 97.42627 C 458.830017 97.797119 462.338257 99.101135 464.152954 100.324097 C 465.967651 101.546997 468.515015 104.111877 469.813782 106.023804 C 471.810791 108.963501 472.111023 110.426025 471.759338 115.5 C 471.491211 119.368408 469.830017 125.407959 467.083435 132.5 C 464.740417 138.549988 461.070435 148.337524 458.927856 154.25 C 455.032288 165 455.032288 165 460.698425 165 C 463.814819 165 470.445007 164.527344 475.432251 163.949707 C 480.419495 163.37207 485.911316 162.686279 487.63623 162.42572 C 490.689758 161.964539 490.910706 161.563721 496.015503 147.226013 C 498.89917 139.126709 503.515381 126.875 506.273682 120 C 509.032043 113.125 513.615112 102.549988 516.458252 96.5 C 519.301392 90.450012 525.409851 78.976013 530.032654 71.002319 C 534.655396 63.028564 541.664307 52.228577 545.60791 47.002319 C 549.551514 41.776062 555.567627 34.46283 558.976929 30.750793 C 562.386292 27.038696 569.060608 21.085938 573.808777 17.522339 C 578.556946 13.958801 584.942017 9.710571 587.997803 8.081848 C 591.053589 6.453125 597.529541 3.968445 602.388733 2.560303 C 609.192932 0.588501 613.476135 0 621.022766 0 C 627.701843 0 632.680969 0.580322 636.660889 1.822754 C 639.872437 2.825256 644.32782 4.802429 646.561768 6.216492 C 648.795776 7.630493 652.682129 11.077087 655.19812 13.875488 C 657.817139 16.788452 660.878235 21.725037 662.358826 25.423523 C 663.781189 28.976563 665.434998 35.913757 666.033936 40.8396 C 666.82428 47.340149 666.818726 52.559814 666.013489 59.877502 C 665.40332 65.422485 663.792664 74.235657 662.434204 79.462341 C 661.075745 84.689026 658.694641 92.235657 657.142883 96.232666 C 655.591064 100.229736 652.265442 107.571228 649.752502 112.54718 C 647.239624 117.523132 642.468689 125.623169 639.150452 130.54718 C 635.832153 135.471252 629.886475 143.099976 625.937744 147.5 C 621.989014 151.900024 615.775146 158.136719 612.12915 161.359314 C 608.483093 164.581909 602.440979 169.38501 598.702087 172.032837 C 594.963257 174.680603 587.988281 178.860046 583.202087 181.320496 C 578.415955 183.780945 571.125 186.97467 567 188.417725 C 562.875 189.86084 554.775024 192.078613 549 193.346161 C 538.89032 195.565125 538.438782 195.778137 536.853638 199.075409 C 535.948181 200.958923 531.582825 213.975006 527.152832 228 C 522.722839 242.024994 515.273743 265.319763 510.599304 279.766113 C 505.924805 294.212494 497.094055 321.437469 490.975403 340.266113 C 484.85675 359.094757 477.171082 383.274994 473.896179 394 C 470.621216 404.725006 466.358948 419.567505 464.424377 426.983368 C 462.489868 434.399231 461.040527 442.003632 461.203552 443.88208 C 461.366577 445.760529 462.261658 447.774414 463.192566 448.357361 C 464.393982 449.109741 467.29541 449.066193 473.192566 448.207245 C 477.761658 447.541748 490.5 445.236145 501.5 443.08374 C 512.5 440.931335 532.75 437.124237 546.5 434.623535 C 560.25 432.122833 581.849976 428.270844 594.5 426.063568 C 607.150024 423.856323 627.286011 420.455414 639.246643 418.506042 C 651.207275 416.556641 670.782288 413.377533 682.746643 411.441345 C 694.710999 409.505127 714.849976 406.335419 727.5 404.397491 C 740.150024 402.459595 760.96167 399.321411 773.748169 397.423767 C 786.534607 395.526123 809.259644 392.176361 824.248169 389.979858 C 839.236694 387.783386 864.662048 384.185944 880.748901 381.985596 C 896.835938 379.785248 928.11084 375.518463 950.248901 372.503845 C 972.387085 369.489227 1013.675049 364.11145 1042 360.553192 C 1070.324951 356.994965 1103.400024 352.917908 1115.5 351.493073 C 1127.599976 350.068268 1146.724976 347.77298 1158 346.392456 C 1169.275024 345.011932 1186.150024 342.99527 1195.5 341.91098 C 1204.849976 340.82666 1220.722412 339.055695 1230.772095 337.975464 C 1240.821777 336.895233 1259.046753 335.113953 1271.272095 334.01709 C 1283.497437 332.920227 1302.050049 331.365021 1312.5 330.561066 C 1322.949951 329.75708 1340.275024 328.559418 1351 327.899536 C 1361.724976 327.239655 1379.5 326.932678 1390.5 327.217346 C 1407.728394 327.663208 1411.848389 328.091064 1420.22998 330.30481 C 1425.581421 331.718201 1432.221069 334.010315 1434.984619 335.398376 C 1437.748169 336.786438 1441.596558 339.177124 1443.536621 340.71106 C 1445.476685 342.244965 1448.617676 345.75 1450.516724 348.5 C 1452.536499 351.425049 1454.658813 356.305328 1455.630859 360.26001 C 1457.003296 365.844269 1457.103027 368.162384 1456.203979 373.58783 C 1455.605469 377.200104 1453.742798 383.089294 1452.064941 386.674927 C 1450.050049 390.980652 1446.968628 395.195801 1442.98999 399.088989 C 1439.676636 402.331055 1434.835938 406.062164 1432.23291 407.38031 C 1429.629761 408.698456 1425.055786 410.502136 1422.068481 411.388489 C 1419.081177 412.274811 1413.456177 412.997223 1409.568481 412.993835 C 1405.210205 412.990051 1401.385986 412.406738 1399.594727 411.472565 C 1397.996704 410.639252 1396.098633 409.179535 1395.376465 408.228729 C 1394.654419 407.277924 1394.052246 405.375 1394.038452 404 C 1394.024536 402.625 1394.907227 400.149994 1396 398.5 C 1397.092773 396.850006 1397.989746 394.283661 1397.993408 392.797058 C 1397.99707 391.310425 1397.461304 388.911835 1396.802979 387.466858 C 1396.144531 386.021851 1393.865356 383.95163 1391.738037 382.866364 C 1389.61084 381.781128 1384.143921 380.394592 1379.5896 379.785217 C 1374.270264 379.073517 1364.369385 378.920258 1351.904419 379.35672 C 1341.232056 379.730377 1325.300049 380.498108 1316.5 381.062744 C 1307.699951 381.62738 1290.150024 382.951691 1277.5 384.005676 C 1264.849976 385.059692 1240.775024 387.288239 1224 388.958069 C 1207.224976 390.627869 1179.099976 393.596771 1161.5 395.555634 C 1143.900024 397.514465 1116.675049 400.66861 1101 402.564819 C 1085.324951 404.461029 1056.525024 408.047943 1037 410.535767 C 1017.474976 413.02359 986.986694 417.065063 969.248169 419.516876 C 951.509766 421.968658 922.709717 425.987122 905.248169 428.446777 C 887.786743 430.906433 860 434.96759 843.5 437.471588 C 827 439.975555 795.049988 444.960907 772.5 448.55011 C 749.950012 452.139313 712.515625 458.214661 689.312561 462.050903 C 666.109436 465.887115 633.034485 471.511139 615.812561 474.548737 C 598.590637 477.586304 570.775024 482.548584 554 485.575928 C 537.224976 488.603302 511.575012 493.350952 497 496.126312 C 482.424988 498.901642 460.599976 502.964539 448.5 505.154907 C 432.093079 508.125 424.720398 509.032593 419.5 508.724884 C 414.544922 508.432831 411.004333 507.55072 407.380249 505.705322 C 404.564392 504.271484 401.159912 501.790283 399.814697 500.19162 C 398.469482 498.592926 396.32666 494.862244 395.052856 491.901184 C 393.294678 487.814178 392.746704 484.709045 392.777771 479.008759 C 392.80542 473.933044 393.80603 467.773682 395.865784 460 C 397.541687 453.674988 401.395874 440.301361 404.430542 430.280792 C 407.465271 420.260223 414.150146 399.110199 419.285767 383.280792 C 424.421448 367.451355 438.944031 323.450012 451.558167 285.5 C 464.172302 247.549988 475.264648 213.846344 476.207825 210.602997 C 477.922668 204.705994 477.922668 204.705994 469.211365 205.358063 C 464.420105 205.716705 456.059631 206.645691 450.632568 207.422516 C 445.205444 208.19931 440.411865 209.209534 439.980103 209.66745 C 439.548401 210.125366 435.109558 222.732605 430.116089 237.683563 C 425.12262 252.634521 417.1427 276.93454 412.382874 291.683563 C 407.623108 306.432617 400.625183 328.399994 396.83197 340.5 C 393.038696 352.600006 386.992737 372.399994 383.396484 384.5 C 379.800232 396.600006 374.63031 415.049988 371.907837 425.5 C 369.185303 435.950012 365.36554 452.149994 363.419373 461.5 C 360.639099 474.857513 359.754761 481.798767 359.291992 493.895782 C 358.810059 506.493958 359.016541 510.621338 360.428284 516.609558 C 361.377136 520.634521 363.422363 525.816833 364.973145 528.125916 C 366.523926 530.434998 369.526917 533.374023 371.646362 534.656982 C 374.551392 536.415527 376.976929 536.988647 381.5 536.985107 C 385.692688 536.981873 389.006104 536.275391 392.5 534.639771 C 395.25 533.352417 399.525024 530.930298 402 529.257263 C 404.474976 527.584229 408.384888 525.653992 410.68866 524.967773 C 412.992371 524.281616 416.737061 523.969666 419.010132 524.274536 C 421.283203 524.579407 424.856323 525.962646 426.950378 527.34845 C 429.252014 528.871582 431.695435 531.772644 433.128845 534.684021 C 435.016479 538.517883 435.490662 541.05896 435.454163 547.144592 C 435.413391 553.942139 434.980957 555.659729 431.551575 562.644592 C 428.736816 568.377563 425.868591 572.280212 420.935974 577.088806 C 416.048218 581.853577 411.591919 584.973083 404.838562 588.357361 C 399.702393 590.931274 391.900024 593.939575 387.5 595.042542 C 383.099976 596.145508 375 597.261719 369.5 597.52301 Z M 67.77269 415.661682 C 70.238174 415.418671 73.716049 414.082764 75.995316 412.503235 C 78.167786 410.997711 81.974014 407.597046 84.453598 404.946167 C 86.933182 402.295288 90.805588 397.285431 93.058945 393.813202 C 95.312302 390.340942 98.897537 383.899994 101.026123 379.5 C 103.154724 375.100006 106.226898 367.872711 107.85318 363.439392 C 109.479462 359.006042 111.50592 353.035461 112.356445 350.171448 C 113.902863 344.964081 113.902863 344.964081 109.879761 342.301727 C 107.667053 340.837433 104.988922 337.938446 103.928345 335.859528 C 102.867737 333.780609 102 330.720856 102 329.060089 C 102 327.399292 102.699615 324.291992 103.554688 322.154938 C 104.40976 320.017883 106.369202 317.062408 107.908997 315.587189 C 109.448822 314.111969 112.011688 312.558899 113.604309 312.135925 C 116.121948 311.467285 116.539398 310.835846 116.801819 307.299469 C 117.033539 304.176788 116.552155 302.590881 114.72934 300.471741 C 112.585114 297.978943 111.869446 297.758087 107.34433 298.192902 C 103.941406 298.519867 100.892151 299.666138 97.841034 301.765381 C 95.370071 303.465424 90.712891 307.701202 87.491714 311.178192 C 84.270554 314.655182 79.210831 321.217072 76.247894 325.760132 C 73.284973 330.303223 69.017212 337.953217 66.763992 342.760132 C 64.510773 347.567078 61.431259 355.132477 59.920639 359.572205 C 58.410004 364.011902 56.354431 371.43692 55.352676 376.072205 C 54.272369 381.071075 53.549408 388.396118 53.57576 394.07608 C 53.613251 402.159668 54.000458 404.419617 56.060089 408.57608 C 57.402039 411.284241 59.625 414.081146 61 414.791412 C 62.394653 415.511841 65.38913 415.896606 67.77269 415.661682 Z M 708.229919 341.701233 C 700.753845 351.62027 694.453735 358.658478 689.406372 363.741028 C 681.675476 371.52597 678.832581 373.653168 671.364685 377.241028 C 662.734314 381.387451 662.232849 381.5 652.391846 381.5 C 644.84729 381.5 641.355103 381.057922 638.622437 379.756927 C 636.608765 378.798248 633.057434 376.098267 630.730652 373.756927 C 628.171387 371.181793 625.477234 366.978699 623.911133 363.118164 L 621.322266 356.736328 L 614.039185 365.385071 C 610.033508 370.141876 603.440613 376.701019 599.388367 379.960938 C 595.33606 383.220856 589.088989 387.28714 585.505981 388.997131 C 581.922974 390.707153 575.955872 392.749542 572.245728 393.535767 C 568.535583 394.321991 562.799988 394.932861 559.5 394.893219 C 556.200012 394.853577 551.374207 394.235992 548.77594 393.520813 C 546.177734 392.805634 542.052979 391.049042 539.609924 389.617279 C 537.166809 388.185516 533.539856 385.112122 531.550049 382.787476 C 529.560242 380.46283 526.815308 376.277985 525.450256 373.487823 C 524.085144 370.697662 522.244751 364.608978 521.360474 359.957397 C 520.222046 353.968658 519.921204 348.676849 520.329773 341.828156 C 520.647156 336.508636 522.089905 326.881195 523.53595 320.433838 C 524.981995 313.98645 528.23761 303.038788 530.770752 296.105652 C 533.303833 289.172546 538.152405 278.05304 541.545349 271.39563 C 544.938232 264.73822 550.660034 254.838226 554.260437 249.39563 C 557.86084 243.953033 564.404114 235.203552 568.801086 229.952362 C 573.198059 224.701172 579.654053 217.755585 583.147766 214.517761 C 586.641479 211.279938 593.099976 205.944031 597.5 202.660187 C 601.900024 199.376343 609.099976 195.004669 613.5 192.945343 C 617.900024 190.885986 624.049744 188.6427 627.166138 187.960205 C 630.301086 187.273621 635.924377 186.940491 639.753906 187.214478 C 645.028381 187.591919 648.141296 188.491028 652.83551 190.993042 C 656.872803 193.144867 660.264709 195.940521 662.678467 199.105621 C 666.361328 203.934937 666.361328 203.934937 668.276855 200.717468 C 669.330322 198.947845 672.061523 195.550354 674.34613 193.16748 C 676.630798 190.784607 680.299988 187.897522 682.5 186.751831 C 685.155273 185.368958 689.080994 184.514465 694.177551 184.210022 C 700.643433 183.823792 702.570679 184.097839 706.389832 185.946655 C 709.122681 187.269592 711.810669 189.575623 713.154602 191.750122 C 714.640076 194.153656 715.369568 196.884491 715.339539 199.929199 C 715.314819 202.443146 714.389038 206.975006 713.282288 210 C 712.175537 213.024994 707.780334 224.049988 703.515076 234.5 C 699.249878 244.950012 693.063171 260.700012 689.766968 269.5 C 686.470703 278.299988 681.317566 292.700012 678.315613 301.5 C 675.313599 310.299988 672.598083 319.896088 672.281067 322.824615 C 671.786987 327.389618 672.010864 328.455322 673.85022 330.294678 C 675.758301 332.202728 676.35553 332.308167 679.247864 331.24762 C 681.036499 330.591766 684.758545 327.658447 687.518921 324.729187 C 690.279358 321.799896 694.228943 316.85553 696.295776 313.741699 C 698.36261 310.627869 701.80127 304.34964 703.937134 299.79007 C 706.073059 295.23053 710.545959 283.850006 713.876892 274.5 C 717.207825 265.149994 723.82135 246.475006 728.573547 233 C 733.325806 219.524994 741.268066 197.475006 746.223083 184 C 751.178162 170.525024 759.713257 147.575012 765.190063 133 C 770.66687 118.424988 778.550659 97.597473 782.709595 86.716614 C 786.868591 75.835754 791.565247 64.979736 793.146729 62.592163 C 794.72821 60.20459 797.824341 57.058472 800.0271 55.600769 C 802.229858 54.143066 806.827637 52.234192 810.244446 51.358887 C 814.049927 50.383972 818.449707 49.973022 821.600769 50.298218 C 824.429993 50.590271 828.582825 51.766846 830.829285 52.912903 C 833.473328 54.261841 835.850891 56.595764 837.571228 59.531372 C 839.881165 63.472961 840.168762 64.879272 839.770142 70.283081 C 839.425232 74.95752 837.012451 82.578735 830.04541 101 C 824.949036 114.474976 817.395996 134.950012 813.260803 146.5 C 809.12561 158.049988 805.166138 169.861206 804.461975 172.747131 C 803.757874 175.633057 803.572937 178.236084 804.051147 178.531616 C 804.529297 178.827148 807.56189 177.735535 810.790222 176.105896 C 814.018555 174.476257 819.388916 172.43573 822.724304 171.571411 C 826.059692 170.707153 831.744324 170 835.356812 170 C 839.632813 170 843.933899 170.751648 847.681519 172.153809 C 851.5755 173.610718 855.085693 175.956482 858.530457 179.403809 C 861.331238 182.206726 864.835144 187.064819 866.316895 190.199585 C 867.798584 193.334381 869.527222 199.220306 870.158325 203.279449 C 870.860352 207.79541 871.067017 215.47995 870.690674 223.079834 C 870.352417 229.910919 869.182007 239.420227 868.089844 244.211639 C 866.997559 249.003052 864.195251 258.67804 861.862488 265.711639 C 859.529724 272.745239 854.610718 284.463562 850.931396 291.752319 C 847.252014 299.041107 840.714783 310.291107 836.404175 316.752319 C 830.534607 325.550232 825.168518 331.88974 815.033325 342 C 804.612854 352.394806 799.495117 356.677887 792.783752 360.620911 C 787.989807 363.437408 780.114807 367.037415 775.283752 368.620911 C 767.502136 371.171539 765.072693 371.5 753.989441 371.5 C 742.53241 371.5 740.848083 371.253601 733.989441 368.574188 C 728.033508 366.247437 725.267822 364.404602 720.4823 359.574188 C 717.172546 356.233368 713.061768 350.845276 711.347229 347.600616 L 708.229919 341.701233 Z M 902.661987 356.918488 C 898.7229 356.873627 892.349976 356.166382 888.5 355.346802 C 884.650024 354.527222 878.656982 352.462128 875.182251 350.75769 C 870.849487 348.632385 867.01001 345.634949 862.962219 341.217438 C 859.13678 337.042694 856.326355 332.815521 854.975159 329.204102 C 853.828552 326.139435 852.647827 320.902313 852.351379 317.56601 C 852.021179 313.850006 852.408142 308.695221 853.350281 304.260101 C 854.196106 300.278168 856.262817 294.139923 857.942932 290.619537 C 859.623047 287.099152 863.033203 281.954865 865.521057 279.187805 C 868.008911 276.420746 872.372803 272.99649 875.218506 271.5784 C 879.266235 269.56134 881.884766 269 887.245972 269 C 891.307251 269 895.252808 269.596466 896.930542 270.464081 C 898.487671 271.269318 900.94043 273.328857 902.380859 275.040802 C 904.244629 277.255676 905 279.299347 905 282.126373 C 905 284.311493 904.371094 287.315521 903.602417 288.802032 C 902.83374 290.288513 901.267456 292.352936 900.121948 293.389648 C 898.97644 294.426361 897.775513 296.679993 897.453247 298.397705 C 897.130981 300.115417 897.335938 302.753418 897.908691 304.259949 C 898.481567 305.766479 900.423828 307.897614 902.225098 308.995789 C 904.026245 310.093994 907.074951 310.986816 909 310.979797 C 910.925049 310.972809 914.260254 309.962006 916.411621 308.733551 C 918.654541 307.452789 921.154907 304.889374 922.272949 302.724274 C 923.801636 299.764008 924.139526 297.474426 923.837158 292.123291 C 923.533936 286.757935 922.663574 283.715485 919.768066 277.899048 C 917.74231 273.829559 912.844849 266.460541 908.88501 261.523438 C 904.925171 256.586334 900.092529 250.06131 898.145752 247.023438 C 896.198975 243.985535 893.380005 238.575012 891.881226 235 C 890.382568 231.424988 888.669556 224.968445 888.074585 220.6521 C 887.321533 215.188843 887.304321 210.854889 888.0177 206.388916 C 888.581421 202.860535 890.080811 197.113251 891.349854 193.617249 C 892.618774 190.121216 894.926147 185.064636 896.477173 182.380432 C 898.028198 179.696167 903.192749 173.625549 907.953979 168.890137 C 915.088135 161.794617 918.271851 159.462341 926.05542 155.629761 C 931.249878 153.072021 938.650024 150.196472 942.5 149.239624 C 947.450806 148.009277 953.452148 147.507141 963 147.524292 C 974.840088 147.545654 977.233154 147.840881 982.46228 149.925598 C 986.368164 151.482727 990.038086 153.959045 993.102661 157.105347 C 995.907471 159.985046 998.425293 163.799744 999.390381 166.632202 C 1000.275635 169.230469 1001 173.478699 1001 176.072815 C 1001 178.66687 1000.104736 183.649231 999.010376 187.144653 C 997.916138 190.640076 995.709106 195.75 994.105835 198.5 C 992.502563 201.25 989.587769 205.354187 987.628418 207.620392 C 985.669067 209.886597 982.381714 212.540039 980.323242 213.516876 C 978.264648 214.493744 974.732056 215.501312 972.473145 215.75592 C 969.158081 216.129578 967.822632 215.751556 965.548828 213.795715 C 963.637451 212.15155 962.736694 210.428589 962.747192 208.436279 C 962.755615 206.82132 963.094971 202.998688 963.501343 199.941559 C 964.1073 195.383759 963.935791 194.078613 962.548706 192.691559 C 961.554443 191.697327 959.293213 191 957.063477 191 C 954.730469 191 952.247559 191.804077 950.614868 193.088287 C 949.154663 194.236847 947.294067 196.464508 946.47998 198.038635 C 945.666016 199.612762 945.004395 202.835541 945.009766 205.200348 C 945.015381 207.680847 946.088013 211.795288 947.5448 214.924988 C 948.933716 217.908752 952.248657 223.308746 954.911133 226.924988 C 957.57373 230.54126 962.082886 236.990143 964.931396 241.25589 C 967.779907 245.521637 971.418335 251.821625 973.016724 255.25589 C 974.615112 258.690155 976.615234 264.182037 977.461426 267.460114 C 978.307617 270.738159 979 277.528656 979 282.55014 C 979 288.348511 978.273804 294.566467 977.009888 299.590027 C 975.915283 303.940521 972.972046 311.659912 970.469238 316.744263 C 966.90918 323.97641 964.240601 327.698212 958.209351 333.843445 C 953.823242 338.312408 947.478394 343.47525 943.490356 345.820343 C 939.635132 348.087433 933.785034 350.884674 930.490356 352.036438 C 927.195679 353.188232 921.197876 354.776215 917.161987 355.565308 C 913.126099 356.35437 906.601196 356.963318 902.661987 356.918488 Z M 1030.254761 225.5 C 1018.0448 225.118652 1013.109253 224.372681 1011.409546 223.596222 C 1009.646973 222.791077 1007.767822 220.853699 1007.036133 219.087219 C 1006.296631 217.30191 1005.939331 213.768188 1006.192749 210.744965 C 1006.439087 207.805145 1007.842285 203.082764 1009.385498 200 C 1010.899658 196.975006 1013.524292 193.059631 1015.217896 191.299133 C 1016.911377 189.538696 1019.919678 187.449097 1021.902832 186.655579 C 1023.885986 185.862061 1032.5896 183.94812 1041.244141 182.402344 C 1056.979736 179.591919 1056.979736 179.591919 1065.668091 165.045959 C 1070.446655 157.045654 1078.62561 143.75 1083.843384 135.5 C 1089.061157 127.25 1097.611206 114.200012 1102.843506 106.5 C 1108.075806 98.799988 1116.180786 87.325012 1120.854614 81 C 1125.528442 74.674988 1133.189209 64.775024 1137.87854 59 C 1142.567749 53.224976 1151.831299 43.063904 1158.464111 36.419739 C 1165.096924 29.775574 1173.668457 22.019043 1177.511963 19.182983 C 1181.355347 16.346924 1187.425049 12.485901 1191 10.602966 C 1194.574951 8.719971 1200.199463 6.399536 1203.498779 5.446411 C 1207.087769 4.409607 1212.781738 3.728516 1217.672607 3.751038 C 1222.654297 3.773926 1227.883545 4.464844 1231.059937 5.519897 C 1233.926636 6.472107 1238.081299 8.882141 1240.292358 10.875549 C 1242.50354 12.869019 1245.132324 16.299988 1246.134277 18.5 C 1247.23877 20.924927 1247.963379 24.86261 1247.974609 28.5 C 1247.984863 31.799988 1246.947021 38.325012 1245.668457 43 C 1244.389771 47.674988 1240.133179 61.400024 1236.209229 73.5 C 1232.2854 85.599976 1225.276855 108.549988 1220.634888 124.5 C 1215.992798 140.450012 1208.059692 168.125 1203.005615 186 C 1197.951538 203.875 1191.610107 227.049988 1188.913696 237.5 C 1186.217285 247.950012 1182.840088 261.674988 1181.408813 268 C 1179.977661 274.325012 1177.968018 284.450012 1176.943115 290.5 C 1175.918091 296.549988 1174.56604 303.922028 1173.938477 306.882263 C 1173.100586 310.834503 1171.739868 313.411743 1168.817139 316.582489 C 1166.628052 318.957397 1162.961182 321.780518 1160.668457 322.856079 C 1158.375854 323.931671 1153.349976 325.339355 1149.5 325.984283 C 1145.650024 326.629211 1140.247314 326.877899 1137.493896 326.536957 C 1134.740601 326.196014 1130.703857 324.916351 1128.52356 323.693298 C 1126.34314 322.470245 1123.555908 319.980927 1122.329834 318.161499 C 1121.10376 316.342102 1119.818237 312.97113 1119.473267 310.670471 C 1119.030029 307.714508 1119.755737 302.529266 1121.947266 292.993744 C 1123.652954 285.572174 1126.875977 272.75 1129.109497 264.5 C 1131.34314 256.25 1135.17395 242.524994 1137.622437 234 C 1140.070923 225.475006 1142.473022 216.753113 1142.960449 214.618011 C 1143.84668 210.736023 1143.84668 210.736023 1138.67334 211.303802 C 1135.828003 211.616089 1128.324951 212.570435 1122 213.424591 C 1115.675049 214.278717 1107.125 215.447815 1103 216.022552 C 1098.875 216.59729 1093.817017 217.316132 1091.76001 217.619965 C 1088.135376 218.155365 1087.821533 218.54718 1081.573242 230.336182 C 1078.027466 237.026276 1071.18811 250.375 1066.374634 260 C 1061.561157 269.625 1055.190796 282.899994 1052.21814 289.5 C 1049.245483 296.100006 1045.297363 305.325012 1043.444336 310 C 1041.591431 314.674988 1039.104004 321.146362 1037.91687 324.380829 C 1036.729736 327.615295 1034.209106 331.976501 1032.315674 334.072388 C 1030.422119 336.168304 1026.989014 338.570129 1024.686401 339.40979 C 1022.383911 340.249451 1017.829834 341.400757 1014.566284 341.968231 C 1011.302856 342.535706 1007.477783 342.959412 1006.066284 342.909821 C 1004.654907 342.860199 1001.925049 342.37207 1000 341.825043 C 998.074951 341.278046 995.036987 339.720367 993.248901 338.363556 C 991.460815 337.006744 989.277588 334.503754 988.397339 332.801361 C 987.506348 331.078522 986.823853 327.443451 986.858032 324.603058 C 986.891724 321.796387 988.028198 316.125 989.383423 312 C 990.738647 307.875 994.285522 298.649994 997.265259 291.5 C 1000.245117 284.350006 1006.352783 271.299988 1010.838013 262.5 C 1015.32312 253.700012 1021.526733 241.774994 1024.623779 236 L 1030.254761 225.5 Z M 589.526733 340 C 591.226013 340 594.602783 338.708435 597.054199 337.12085 C 599.49939 335.537323 603.81958 331.824829 606.654602 328.87085 C 609.489685 325.91687 613.820862 320.350006 616.27948 316.5 C 618.738159 312.649994 622.822266 305.363953 625.355408 300.308777 C 627.888489 295.253601 631.565491 287.241577 633.526489 282.504272 C 635.487549 277.766968 638.657532 269.212524 640.570923 263.494385 C 642.484314 257.776276 644.527039 250.516327 645.110291 247.361145 C 645.693542 244.205994 645.874939 239.65155 645.513306 237.240173 C 645.151672 234.828796 643.935669 231.935669 642.811035 230.811035 C 641.165833 229.165833 639.89502 228.864441 636.3078 229.268768 C 633.370422 229.599854 629.988586 231.052887 626.395142 233.527802 C 623.395264 235.593872 618.689819 239.747253 615.938599 242.757568 C 613.187317 245.767883 608.982666 250.991425 606.594849 254.365417 C 604.20697 257.739441 600.177612 264.100006 597.640564 268.5 C 595.103577 272.899994 591.17865 281 588.918457 286.5 C 586.658325 292 583.727112 300.720215 582.404541 305.878235 C 580.882324 311.815247 580 318.090118 580 322.979004 C 580 327.22641 580.49646 332.125732 581.103271 333.866394 C 581.710083 335.607086 583.160217 337.699219 584.325806 338.515625 C 585.491333 339.332031 587.831787 340 589.526733 340 Z M 774 317.235077 C 775.375 316.951416 777.652344 316.139954 779.060791 315.431824 C 780.469238 314.723694 784.519226 311.069885 788.060791 307.312256 C 791.602356 303.554626 796.466919 297.164398 798.870911 293.111725 C 801.274902 289.059082 804.494629 282.980316 806.025818 279.603394 C 807.556946 276.226471 810.439148 268.78241 812.430603 263.061035 C 814.422119 257.339661 816.741272 248.372009 817.58429 243.132904 C 818.558472 237.079224 818.874573 231.34201 818.451538 227.392242 C 818.08551 223.973969 816.94812 219.799408 815.924011 218.115448 C 814.899902 216.431458 812.903564 214.762909 811.487671 214.407532 C 809.969238 214.026459 807.096008 214.455444 804.483032 215.453339 C 801.48999 216.596375 798.016663 219.346741 793.776367 223.931396 C 790.324402 227.663788 784.969788 235.16861 781.877319 240.608765 C 778.784851 246.04895 774.14917 255.776703 771.575806 262.225983 C 769.002441 268.675293 765.795166 278.295471 764.448486 283.604218 C 762.831421 289.97879 762 296.049072 762 301.480347 C 762 308.36499 762.368225 310.250671 764.26123 313.059692 C 765.504944 314.905182 767.642395 316.715668 769.01123 317.082977 C 770.380066 317.450317 772.625 317.518738 774 317.235077 Z M 1228.5 314.89502 C 1225.75 314.853546 1221.949829 314.374634 1220.055176 313.830719 C 1218.160522 313.286835 1214.952759 311.996246 1212.92688 310.962738 C 1210.901123 309.929199 1207.411743 307.002563 1205.172852 304.459076 C 1202.934082 301.915588 1200.291748 297.734283 1199.301147 295.167297 C 1197.944458 291.651855 1197.511108 287.785248 1197.545044 279.5 C 1197.582275 270.395416 1198.132813 266.486298 1200.73999 256.813507 C 1202.472534 250.385925 1206.671387 236.660919 1210.071045 226.313507 C 1213.470703 215.966064 1219.372314 198.802185 1223.185791 188.171509 C 1226.999268 177.540833 1232.366943 163.062256 1235.11377 155.996826 C 1237.860718 148.931458 1241.406494 141.358459 1242.993286 139.167969 C 1244.937744 136.483643 1248.027222 134.12738 1252.46936 131.940491 C 1257.569824 129.429504 1260.766235 128.586304 1266.60376 128.21167 C 1270.800415 127.942322 1275.796753 128.221741 1277.865112 128.841431 C 1279.910034 129.454102 1282.88562 131.314941 1284.477661 132.976685 C 1286.832153 135.434265 1287.445313 137.070984 1287.76416 141.748962 C 1288.131836 147.143372 1287.465332 149.236206 1277.016357 175.5 C 1270.889526 190.900024 1264.293945 208 1262.359497 213.5 C 1260.424927 219 1257.272705 228.450012 1255.354492 234.5 C 1253.436401 240.549988 1251.608154 248.519226 1251.29187 252.209381 C 1250.838867 257.493439 1251.070313 259.458466 1252.38147 261.459381 C 1253.341431 262.92453 1254.98877 263.998413 1256.273071 263.996277 C 1257.497925 263.994202 1259.849976 263.145233 1261.5 262.10968 C 1263.150024 261.074127 1266.81958 257.813293 1269.654663 254.863403 C 1272.489624 251.913544 1276.831665 246.341492 1279.303589 242.481079 C 1281.775513 238.620667 1285.81189 230.970673 1288.273438 225.481079 C 1290.734863 219.991486 1294.434692 211 1296.495117 205.5 C 1298.555542 200 1302.1698 190.099976 1304.526855 183.5 C 1306.883911 176.900024 1310.913574 165.875 1313.481567 159 C 1316.049561 152.125 1319.547119 143.145264 1321.253906 139.045044 C 1323.210693 134.344482 1325.861572 130.087891 1328.428589 127.524231 C 1330.667847 125.288025 1334.195435 122.655396 1336.2677 121.673889 C 1338.339844 120.692444 1342.614868 119.462708 1345.7677 118.941162 C 1349.644531 118.299927 1353.24707 118.350647 1356.897583 119.098022 C 1360.875244 119.912354 1363.37439 121.210388 1366.397583 124.032227 C 1370.494141 127.855896 1370.499878 127.871826 1370.440674 135.180664 C 1370.387939 141.694458 1369.713013 144.205872 1364.308594 158 C 1360.968506 166.525024 1355.541138 180.924988 1352.247803 190 C 1348.954468 199.075012 1343.91626 213.659515 1341.051758 222.410034 C 1338.187378 231.160553 1335.378784 240.959106 1334.810669 244.18454 C 1334.04126 248.55249 1334.088623 250.799835 1334.996338 252.991272 C 1335.666626 254.609497 1337.055054 256.200104 1338.081665 256.52594 C 1339.108276 256.851776 1341.445068 256.408112 1343.274414 255.540009 C 1345.10376 254.671936 1349.11377 251.382813 1352.185547 248.230835 C 1355.257324 245.078888 1359.628784 239.735809 1361.899902 236.357361 C 1364.170898 232.978912 1367.776367 226.453918 1369.911865 221.857361 C 1372.047485 217.260803 1376.369263 206.524994 1379.515869 198 C 1382.662476 189.474976 1388.133545 174.894348 1391.673828 165.598511 C 1395.213989 156.302734 1398.366943 147.415222 1398.680298 145.848511 C 1399.25 143 1399.25 143 1392.180786 143 C 1386.204102 143 1384.689697 142.637146 1382.38208 140.652161 C 1380.128784 138.713989 1379.639282 137.449036 1379.576294 133.402161 C 1379.534302 130.705994 1380.351074 126.293396 1381.391357 123.596436 C 1382.431641 120.899414 1384.838257 116.971008 1386.739502 114.866577 C 1389.082764 112.272949 1391.855957 110.531616 1395.348145 109.461121 C 1398.181641 108.592529 1403.650024 107.324158 1407.5 106.642395 C 1414.5 105.402893 1414.5 105.402893 1418.099487 96.451416 C 1420.079102 91.528137 1424.931519 78.950012 1428.882446 68.5 C 1432.833374 58.049988 1437.882935 45.767273 1440.103638 41.205078 C 1443.090698 35.068787 1445.191406 32.149536 1448.175903 29.987549 C 1450.394897 28.380127 1454.654907 26.150391 1457.6427 25.032471 C 1461.384766 23.632385 1465.474731 23.00116 1470.787476 23.003723 C 1476.718506 23.006592 1479.252808 23.466492 1481.759155 24.994568 C 1483.551636 26.087524 1485.940796 28.448303 1487.068359 30.240845 C 1488.633423 32.728882 1488.998413 34.564636 1488.610718 38 C 1488.331543 40.474976 1486.317993 47 1484.136475 52.5 C 1481.954834 58 1478.274048 67.450012 1475.957031 73.5 C 1473.640015 79.549988 1470.952759 86.75 1469.985352 89.5 C 1469.018066 92.25 1467.920166 95.512512 1467.545898 96.75 C 1466.873657 98.971924 1466.9823 99 1476.258301 99 C 1485.064453 99 1485.802856 99.161316 1488.075684 101.58197 C 1489.958984 103.587708 1490.484863 105.208557 1490.432007 108.844604 C 1490.390991 111.666565 1489.305298 115.837585 1487.697998 119.348511 C 1486.231689 122.551331 1483.643921 126.924316 1481.94751 129.066284 C 1479.989502 131.538513 1477.518555 133.337219 1475.181519 133.991577 C 1473.156738 134.558594 1467.0802 135.649658 1461.678223 136.41626 C 1456.276367 137.182922 1451.708862 137.965332 1451.528198 138.155029 C 1451.347656 138.344788 1448.231812 146.717773 1444.604004 156.761719 C 1440.976196 166.805664 1434.82251 184.355652 1430.928955 195.761688 C 1427.0354 207.167755 1422.48645 221.66394 1420.820313 227.975464 C 1418.713623 235.955231 1417.94397 240.810669 1418.293823 243.914642 C 1418.600952 246.639343 1419.518311 248.918732 1420.648438 249.76535 C 1421.811401 250.636505 1423.921875 250.969788 1426.32312 250.66153 C 1428.425781 250.391571 1431.960571 248.9133 1434.178223 247.376465 C 1436.395996 245.8396 1440.216919 242.31369 1442.669312 239.541107 C 1445.121704 236.768494 1449.299316 231.000092 1451.953003 226.722443 C 1454.606567 222.444794 1459.741211 211.644806 1463.363281 202.722443 C 1466.985352 193.80011 1471.973999 181.208069 1474.448975 174.740112 C 1476.924072 168.272156 1482.2948 154.322205 1486.383911 143.740112 C 1490.473022 133.158081 1497.872803 113.700012 1502.827881 100.5 C 1507.783081 87.299988 1515.762207 66.375 1520.559326 54 C 1525.356567 41.625 1530.898926 28.168457 1532.875854 24.096619 C 1534.852905 20.024719 1538.418823 14.526001 1540.800293 11.877136 C 1543.488403 8.887329 1547.649536 5.820984 1551.773804 3.790588 C 1557.812256 0.817871 1559.255981 0.519165 1567.628296 0.51001 C 1575.415405 0.501526 1577.276855 0.823364 1579.669678 2.591919 C 1581.226318 3.742493 1583.552612 6.217529 1584.839111 8.091919 C 1586.683105 10.778564 1587.088745 12.462219 1586.755493 16.045593 C 1586.488647 18.916199 1581.987427 30.707397 1574.539795 48.045593 C 1568.053589 63.145508 1559.929932 82.474976 1556.487305 91 C 1553.044556 99.525024 1549.938232 107.459229 1549.584106 108.631592 C 1549.135498 110.117188 1549.448853 110.958252 1550.618042 111.406921 C 1551.753784 111.842712 1554.704956 110.184937 1559.753296 106.27533 C 1563.85498 103.098938 1569.300903 99.257202 1571.855469 97.738281 C 1574.409912 96.21936 1579.359863 94.081848 1582.855347 92.988281 C 1586.668579 91.795288 1592.022095 91 1596.239258 91 C 1600.105103 91 1605.120117 91.550049 1607.384033 92.222351 C 1609.878418 92.963074 1613.341675 95.278442 1616.174805 98.099487 C 1619.515259 101.42572 1621.299194 104.268311 1622.424805 108.058655 C 1623.291138 110.976074 1623.998901 116.768799 1623.997437 120.931519 C 1623.99585 125.837158 1623.117676 131.774719 1621.501343 137.807617 C 1620.129883 142.926758 1616.026733 154.851807 1612.383301 164.307617 C 1608.739746 173.763428 1603.156128 188.700012 1599.97522 197.5 C 1596.794312 206.299988 1593.413086 217.137482 1592.461304 221.583282 C 1590.955933 228.616241 1590.912109 230.045532 1592.124878 232.583282 C 1592.911255 234.228851 1594.461792 235.634888 1595.682617 235.809479 C 1596.872681 235.979706 1599.568481 235.23642 1601.673218 234.157715 C 1603.777954 233.079041 1608.650024 228.864197 1612.5 224.791412 C 1616.349976 220.718628 1621.4375 215.049408 1623.80542 212.193176 C 1627.489136 207.750061 1628.61499 207 1631.600952 207 C 1633.957031 207 1635.875122 207.784241 1637.504761 209.413879 C 1638.832397 210.741516 1640.228394 213.061646 1640.606812 214.569733 C 1640.985352 216.07782 1640.807495 219.933411 1640.211548 223.137695 C 1639.615723 226.34201 1637.42041 232.21347 1635.333252 236.185425 C 1633.246094 240.157349 1629.597534 246.043579 1627.225342 249.2659 C 1624.853149 252.488251 1620.035156 258.001923 1616.518555 261.518524 C 1613.001953 265.035126 1607.28418 270.022949 1603.812378 272.6026 C 1600.340576 275.182251 1594.349976 278.753387 1590.5 280.538452 C 1586.650024 282.323547 1580.955688 284.344574 1577.845947 285.029694 C 1574.650635 285.733612 1568.922119 286.065491 1564.673218 285.792816 C 1559.248291 285.444672 1555.611206 284.555237 1551.612793 282.598999 C 1548.564941 281.107788 1544.28894 277.863007 1542.110718 275.388367 C 1539.932373 272.913757 1537.432983 268.784271 1536.556519 266.211731 C 1535.679932 263.639191 1534.7146 259.276642 1534.411255 256.517212 C 1534.100952 253.69339 1534.521118 248.132996 1535.372559 243.798187 C 1536.204468 239.562195 1538.454346 231.462219 1540.372192 225.798187 C 1542.290161 220.134186 1546.090576 210.100006 1548.817627 203.5 C 1551.544678 196.899994 1556.128662 185.875 1559.004272 179 C 1561.879761 172.125 1565.530151 162.78833 1567.116211 158.251892 C 1568.702271 153.715393 1570 148.010071 1570 145.573303 C 1570 142.878967 1569.384277 140.5271 1568.428589 139.571411 C 1567.561279 138.704163 1565.184448 138 1563.12439 138 C 1560.731812 138 1557.795288 139.020752 1554.945801 140.843018 C 1552.50061 142.406677 1548.462158 145.894165 1545.971558 148.593018 C 1543.480957 151.29187 1539.360596 156.650024 1536.815063 160.5 C 1534.269653 164.349976 1529.723022 172.450012 1526.711548 178.5 C 1523.699951 184.549988 1519.189697 194.506165 1516.688721 200.624786 C 1514.187622 206.743439 1510.12915 217.318451 1507.6698 224.124786 C 1505.210449 230.931152 1501.158813 242.799988 1498.66626 250.5 C 1496.173584 258.200012 1493.138916 268.270966 1491.922485 272.879883 C 1490.447266 278.469482 1488.762451 282.339905 1486.862671 284.503632 C 1485.296265 286.28772 1481.678223 288.752533 1478.822632 289.980927 C 1475.649414 291.346039 1470.640015 292.419403 1465.938721 292.741638 C 1461.70813 293.031616 1456.606567 292.961182 1454.602051 292.585114 C 1452.597412 292.209045 1449.398193 290.53244 1447.492554 288.859344 C 1445.450439 287.066345 1443.600464 284.229767 1442.986816 281.950867 C 1442.414185 279.824341 1441.540405 277.834015 1441.045288 277.527954 C 1440.550049 277.221893 1437.52478 279.379242 1434.322388 282.322052 C 1431.120117 285.264893 1426.025024 289.33255 1423 291.361298 C 1419.974976 293.390076 1414.640137 295.938721 1411.144653 297.024994 C 1407.293579 298.221741 1401.947021 299 1397.576172 299 C 1393.608887 299 1388.097046 298.327087 1385.327515 297.504639 C 1382.33728 296.616608 1378.366577 294.314392 1375.551147 291.836151 C 1372.943726 289.540955 1369.952637 285.826355 1368.904297 283.581512 C 1367.855957 281.3367 1366.529541 278.183105 1365.956787 276.573547 C 1364.915283 273.647064 1364.915283 273.647064 1355.207642 283.611938 C 1349.868408 289.092621 1342.976074 295.228851 1339.891357 297.248016 C 1336.806641 299.267151 1330.731689 302.115234 1326.391357 303.577057 C 1319.77124 305.806763 1317.353149 306.149475 1311.380737 305.704468 C 1307.162476 305.390167 1302.680054 304.359283 1300.380737 303.174622 C 1298.246338 302.074982 1295.033081 299.647369 1293.240234 297.779968 C 1291.447388 295.912567 1289.073975 292.610657 1287.965942 290.442352 C 1286.85791 288.274048 1285.67981 284.8125 1285.3479 282.75 C 1285.015991 280.6875 1284.464355 279.023102 1284.122192 279.051331 C 1283.780029 279.079559 1281.025024 282.265747 1278 286.131775 C 1274.974976 289.997772 1269.67749 295.77417 1266.227905 298.968201 C 1262.778198 302.162231 1256.881836 306.390839 1253.124756 308.365112 C 1249.367676 310.339386 1243.415161 312.63324 1239.896851 313.462555 C 1236.37854 314.291901 1231.25 314.936493 1228.5 314.89502 Z M 1120.581909 172.713196 C 1124.386841 172.380432 1133.771118 171.175171 1141.435913 170.034851 C 1149.100708 168.89447 1155.45166 167.857666 1155.549072 167.730713 C 1155.646606 167.603821 1159.445923 156.25 1163.992065 142.5 C 1168.538086 128.75 1175.857422 107.150024 1180.257202 94.5 C 1184.65686 81.849976 1188.311401 70.197937 1188.378296 68.606567 C 1188.44519 67.015137 1187.960571 65.522827 1187.30127 65.290283 C 1186.641968 65.057739 1182.230957 69.734802 1177.499268 75.683716 C 1172.767456 81.63269 1163.856934 93.591431 1157.697998 102.258789 C 1151.539063 110.926086 1142.549683 124.201111 1137.721558 131.758789 C 1132.893433 139.316467 1126.641113 149.325012 1123.827515 154 C 1121.013916 158.674988 1117.898193 164.075012 1116.903809 166 C 1115.909302 167.924988 1114.77356 170.359131 1114.379761 171.409119 C 1113.705688 173.206726 1114.067993 173.282898 1120.581909 172.713196 Z M 554.611877 152.604126 C 556.200317 152.229065 559.607666 150.851685 562.183716 149.543335 C 564.759827 148.234985 569.693054 145.245728 573.146545 142.900513 C 576.599976 140.555298 583.226135 135.005798 587.871338 130.568237 C 592.516479 126.130737 598.992371 118.910583 602.262207 114.52356 C 605.532043 110.136536 610.258789 102.486511 612.765991 97.52356 C 615.273254 92.560608 618.361511 85.173584 619.628723 81.10791 C 620.895996 77.042297 622.218994 71.186401 622.568787 68.09491 C 622.931824 64.88623 622.720276 60.674927 622.075928 58.281982 C 621.455078 55.976379 620.251892 53.394775 619.402161 52.544983 C 618.43988 51.582764 616.054749 51 613.078613 51 C 609.402588 51 607.400208 51.65802 604.400024 53.851929 C 602.255005 55.420471 598.164917 59.189514 595.310974 62.227539 C 592.457031 65.265625 587.885925 71.176575 585.153015 75.362976 C 582.420105 79.549438 577.698181 87.834534 574.659851 93.774353 C 571.621582 99.714172 567.021484 109.732361 564.437439 116.036987 C 561.853394 122.341675 558.25647 131.591919 556.444336 136.59314 C 554.632141 141.59436 552.828674 147.39624 552.436584 149.486206 C 551.725952 153.274353 551.732727 153.284058 554.611877 152.604126 Z"/>
</svg>
